HIERARCHY
ROOT hip
{
  OFFSET 0 0 0
  CHANNELS 6 Xposition Yposition Zposition Zrotation Yrotation Xrotation
  JOINT abdomen
  {
    OFFSET 0 20.6881 -0.73152
    CHANNELS 3 Zrotation Xrotation Yrotation
    JOINT chest
    {
      OFFSET 0 11.7043 -0.48768
      CHANNELS 3 Zrotation Xrotation Yrotation
      JOINT neck
      {
        OFFSET 0 22.1894 -2.19456
        CHANNELS 3 Zrotation Xrotation Yrotation
        JOINT head
        {
          OFFSET -0.24384 7.07133 1.2192
          CHANNELS 3 Zrotation Xrotation Yrotation
          JOINT leftEye
          {
            OFFSET 4.14528 8.04674 8.04672
            CHANNELS 3 Zrotation Xrotation Yrotation
            End Site
            {
              OFFSET 1 0 0
            }
          }
          JOINT rightEye
          {
            OFFSET -3.6576 8.04674 8.04672
            CHANNELS 3 Zrotation Xrotation Yrotation
            End Site
            {
              OFFSET 1 0 0
            }
          }
        }
      }
      JOINT rCollar
      {
        OFFSET -2.68224 19.2634 -4.8768
        CHANNELS 3 Zrotation Xrotation Yrotation
        JOINT rShldr
        {
          OFFSET -8.77824 -1.95073 1.46304
          CHANNELS 3 Zrotation Xrotation Yrotation
          JOINT rForeArm
          {
            OFFSET -28.1742 -1.7115 0.48768
            CHANNELS 3 Zrotation Xrotation Yrotation
            JOINT rHand
            {
              OFFSET -22.5879 0.773209 7.07136
              CHANNELS 3 Zrotation Xrotation Yrotation
              JOINT rThumb1
              {
                OFFSET -1.2192 -0.487915 3.41376
                CHANNELS 3 Zrotation Xrotation Yrotation
                JOINT rThumb2
                {
                  OFFSET -3.37035 -0.52449 3.41376
                  CHANNELS 3 Zrotation Xrotation Yrotation
                  End Site
                  {
                    OFFSET -1.78271 -1.18214 1.43049
                  }
                }
              }
              JOINT rIndex1
              {
                OFFSET -7.75947 0.938293 5.60832
                CHANNELS 3 Zrotation Xrotation Yrotation
                JOINT rIndex2
                {
                  OFFSET -2.54057 -0.884171 1.56538
                  CHANNELS 3 Zrotation Xrotation Yrotation
                  End Site
                  {
                    OFFSET -1.62519 -0.234802 1.16502
                  }
                }
              }
              JOINT rMid1
              {
                OFFSET -8.24714 1.18213 3.41376
                CHANNELS 3 Zrotation Xrotation Yrotation
                JOINT rMid2
                {
                  OFFSET -3.10165 -0.590103 1.0647
                  CHANNELS 3 Zrotation Xrotation Yrotation
                  End Site
                  {
                    OFFSET -2.48547 -0.328903 0.83742
                  }
                }
              }
              JOINT rRing1
              {
                OFFSET -8.82822 0.546677 1.51678
                CHANNELS 3 Zrotation Xrotation Yrotation
                JOINT rRing2
                {
                  OFFSET -2.60934 -0.819778 -0.0198488
                  CHANNELS 3 Zrotation Xrotation Yrotation
                  End Site
                  {
                    OFFSET -2.33842 -0.294052 0.168128
                  }
                }
              }
              JOINT rPinky1
              {
                OFFSET -8.27202 -0.0477905 -0.4584
                CHANNELS 3 Zrotation Xrotation Yrotation
                JOINT rPinky2
                {
                  OFFSET -1.82734 -0.647385 -0.700984
                  CHANNELS 3 Zrotation Xrotation Yrotation
                  End Site
                  {
                    OFFSET -1.69225 -0.51767 -0.607171
                  }
                }
              }
            }
          }
        }
      }
      JOINT lCollar
      {
        OFFSET 2.68224 19.2634 -4.8768
        CHANNELS 3 Zrotation Xrotation Yrotation
        JOINT lShldr
        {
          OFFSET 8.77824 -1.95073 1.46304
          CHANNELS 3 Zrotation Xrotation Yrotation
          JOINT lForeArm
          {
            OFFSET 28.1742 -1.7115 0.48768
            CHANNELS 3 Zrotation Xrotation Yrotation
            JOINT lHand
            {
              OFFSET 22.5879 0.773209 7.07136
              CHANNELS 3 Zrotation Xrotation Yrotation
              JOINT lThumb1
              {
                OFFSET 1.2192 -0.487915 3.41376
                CHANNELS 3 Zrotation Xrotation Yrotation
                JOINT lThumb2
                {
                  OFFSET 3.37035 -0.52449 3.41376
                  CHANNELS 3 Zrotation Xrotation Yrotation
                  End Site
                  {
                    OFFSET 1.78271 -1.18214 1.43049
                  }
                }
              }
              JOINT lIndex1
              {
                OFFSET 7.75947 0.938293 5.60832
                CHANNELS 3 Zrotation Xrotation Yrotation
                JOINT lIndex2
                {
                  OFFSET 2.54057 -0.884171 1.56538
                  CHANNELS 3 Zrotation Xrotation Yrotation
                  End Site
                  {
                    OFFSET 1.62519 -0.234802 1.16502
                  }
                }
              }
              JOINT lMid1
              {
                OFFSET 8.24714 1.18213 3.41376
                CHANNELS 3 Zrotation Xrotation Yrotation
                JOINT lMid2
                {
                  OFFSET 3.10165 -0.590103 1.0647
                  CHANNELS 3 Zrotation Xrotation Yrotation
                  End Site
                  {
                    OFFSET 2.48547 -0.328903 0.83742
                  }
                }
              }
              JOINT lRing1
              {
                OFFSET 8.82822 0.546677 1.51678
                CHANNELS 3 Zrotation Xrotation Yrotation
                JOINT lRing2
                {
                  OFFSET 2.60934 -0.819778 -0.0198488
                  CHANNELS 3 Zrotation Xrotation Yrotation
                  End Site
                  {
                    OFFSET 2.33842 -0.294052 0.168128
                  }
                }
              }
              JOINT lPinky1
              {
                OFFSET 8.27202 -0.0477905 -0.4584
                CHANNELS 3 Zrotation Xrotation Yrotation
                JOINT lPinky2
                {
                  OFFSET 1.82734 -0.647385 -0.700984
                  CHANNELS 3 Zrotation Xrotation Yrotation
                  End Site
                  {
                    OFFSET 1.69225 -0.51767 -0.607171
                  }
                }
              }
            }
          }
        }
      }
    }
  }
  JOINT rButtock
  {
    OFFSET -8.77824 4.35084 1.2192
    CHANNELS 3 Zrotation Xrotation Yrotation
    JOINT rThigh
    {
      OFFSET 0 -1.70687 -2.19456
      CHANNELS 3 Zrotation Xrotation Yrotation
      JOINT rShin
      {
        OFFSET 0 -36.8199 0.73152
        CHANNELS 3 Zrotation Xrotation Yrotation
        JOINT rFoot
        {
          OFFSET 0.73152 -45.1104 -5.12064
          CHANNELS 3 Zrotation Xrotation Yrotation
          End Site
          {
            OFFSET -1.1221 -3.69964 12.103
          }
        }
      }
    }
  }
  JOINT lButtock
  {
    OFFSET 8.77824 4.35084 1.2192
    CHANNELS 3 Zrotation Xrotation Yrotation
    JOINT lThigh
    {
      OFFSET 0 -1.70687 -2.19456
      CHANNELS 3 Zrotation Xrotation Yrotation
      JOINT lShin
      {
        OFFSET 0 -36.8199 0.73152
        CHANNELS 3 Zrotation Xrotation Yrotation
        JOINT lFoot
        {
          OFFSET -0.73152 -45.1104 -5.12064
          CHANNELS 3 Zrotation Xrotation Yrotation
          End Site
          {
            OFFSET 1.1221 -3.69964 12.103
          }
        }
      }
    }
  }
}
MOTION
Frames:	4
Frame Time:	0.03333
-3.514537657010118 31.782639227064365 40.48122194877905 9.889008522033691 28.135276794433594 7.465846061706543 -19.14931297302246 10.838104248046875 5.616716384887695 5.219887733459473 -9.596235275268555 1.5093488693237305 -8.961044311523438 18.16872787475586 -12.80968189239502 12.114011764526367 -25.88300132751465 -22.55008316040039 -0.06813600659370422 -0.0018733919132500887 0.0847577229142189 0.14842230081558228 -0.07285401225090027 -0.07443874329328537 -0.029422592371702194 0.03679061681032181 -0.007886717095971107 36.51314926147461 12.23769474029541 32.26798629760742 -15.326238632202148 -7.8781328201293945 28.106346130371094 -0.5045294761657715 18.46401596069336 2.7875256538391113 -0.07870496809482574 -0.1150892972946167 0.08776776492595673 -0.013649645261466503 0.04295302927494049 -0.0087330536916852 -0.05125708505511284 0.04518570378422737 -0.10215064138174057 7.777115821838379 5.394150257110596 0.3848950266838074 0.038136076182127 0.14105089008808136 -0.07429169863462448 2.913874387741089 0.9357102513313293 -0.18781901895999908 -0.12764501571655273 -0.031016184017062187 -0.15961195528507233 10.42663860321045 0.6847769618034363 0.14552690088748932 -0.001145059592090547 -0.0498194620013237 -0.18808136880397797 2.123584270477295 -0.7572425007820129 -0.3868009150028229 -0.0743316188454628 -0.08214939385652542 -0.022549385204911232 -112.27191925048828 50.23094177246094 50.58930969238281 28.18984031677246 -40.13350296020508 -83.56358337402344 0.9388757348060608 -27.907554626464844 3.981571912765503 -0.11299490928649902 -0.010254151187837124 -0.06390716135501862 -0.23281744122505188 -0.0540381483733654 -0.024107137694954872 -0.03591948375105858 -0.10449617356061935 -0.004631237592548132 -7.574346542358398 5.662698745727539 -0.5883883237838745 0.12537263333797455 -0.20519885420799255 -0.08525700867176056 -3.012003183364868 1.195973515510559 -0.19083809852600098 0.16875559091567993 0.17447379231452942 -0.017248785123229027 -10.3615140914917 0.819823145866394 -0.007536775432527065 -0.05957254767417908 -0.09267046302556992 -0.039338089525699615 -2.3014609813690186 -0.46770769357681274 0.030572758987545967 -0.12013543397188187 0.17851975560188293 -0.12032132595777512 -61.809730529785156 -54.98599624633789 -52.707096099853516 -2.1242949962615967 68.39281463623047 2.43654727935791 1.9790012836456299 -0.5401239395141602 15.450133323669434 0.02352537214756012 0.021440580487251282 -0.19011543691158295 11.93685245513916 8.192330360412598 3.4214515686035156 -0.07953391969203949 36.57081985473633 -2.5887362957000732 8.292579650878906 -17.20094871520996 31.81829833984375
-3.5179041932189943 31.707421768829597 40.91579881785834 9.926374435424805 28.120315551757812 7.479686737060547 -19.218002319335938 10.791833877563477 5.6363348960876465 5.227355480194092 -9.5828218460083 1.5022591352462769 -8.95431900024414 18.181631088256836 -12.835601806640625 12.14106273651123 -25.882511138916016 -22.603559494018555 -0.0676964744925499 0.006635509431362152 0.0850958302617073 0.15154746174812317 -0.06861694157123566 -0.07675832509994507 -0.02273104339838028 0.03204423934221268 -0.000867201597429812 36.47501754760742 12.224461555480957 32.350276947021484 -15.298602104187012 -7.859991550445557 28.040983200073242 -0.5079068541526794 18.494468688964844 2.792571544647217 -0.07519663870334625 -0.11130916327238083 0.09595539420843124 -0.015744110569357872 0.03686193749308586 -0.006962544750422239 -0.06728509813547134 0.034237608313560486 -0.09923865646123886 7.771215438842773 5.395333290100098 0.3946413993835449 0.042484525591135025 0.14616520702838898 -0.07150533050298691 2.913409948348999 0.9288204312324524 -0.18589027225971222 -0.13433076441287994 -0.036314915865659714 -0.15924116969108582 10.420055389404297 0.6826807260513306 0.15241673588752747 0.0025375615805387497 -0.045478977262973785 -0.18281449377536774 2.1218390464782715 -0.7608466744422913 -0.3897153437137604 -0.07844461500644684 -0.07473993301391602 -0.031554240733385086 -112.34810638427734 50.253326416015625 50.65058135986328 28.176939010620117 -40.16544723510742 -83.61380767822266 0.9468307495117188 -27.95831298828125 3.9787304401397705 -0.10007091611623764 -0.01615583524107933 -0.05301801487803459 -0.23234570026397705 -0.05705070123076439 -0.021142324432730675 -0.034779760986566544 -0.1029495969414711 0.004940785001963377 -7.565242767333984 5.668734073638916 -0.5855885148048401 0.11525988578796387 -0.2070518434047699 -0.08215025812387466 -3.0236916542053223 1.1949161291122437 -0.19366611540317535 0.1756879687309265 0.17002028226852417 -0.016464052721858025 -10.35252571105957 0.8189600110054016 -0.0002580808359198272 -0.06048170104622841 -0.08314527571201324 -0.04380878433585167 -2.2952795028686523 -0.4681423604488373 0.026147443801164627 -0.1260080188512802 0.1708403080701828 -0.12816257774829865 -62.14976119995117 -55.032474517822266 -53.09437561035156 -2.152541160583496 68.69403839111328 2.4573683738708496 2.046048402786255 -0.7649770975112915 15.622451782226562 0.027127070352435112 0.022654036059975624 -0.18491171300411224 12.013274192810059 8.344788551330566 3.4800596237182617 -0.08276474475860596 36.51102828979492 -2.6043286323547363 8.29671573638916 -17.171863555908203 31.816539764404297
-3.526793364258648 31.616126045288624 41.3563098406659 10.003511428833008 27.998750686645508 7.5484795570373535 -19.333402633666992 10.744279861450195 5.647202014923096 5.244832515716553 -9.56784439086914 1.4929230213165283 -8.962068557739258 18.20804214477539 -12.884143829345703 12.181410789489746 -25.90483283996582 -22.698755264282227 -0.06914903223514557 0.012350732460618019 0.08491908013820648 0.14877372980117798 -0.06459611654281616 -0.08079409599304199 -0.011587237939238548 0.027300242334604263 0.0069767506793141365 36.31597137451172 12.281120300292969 32.556705474853516 -15.267248153686523 -7.836221694946289 27.970237731933594 -0.512276291847229 18.516033172607422 2.8054120540618896 -0.0734386220574379 -0.10557280480861664 0.10224349051713943 -0.011912038549780846 0.02867698483169079 -0.00811944529414177 -0.08296248316764832 0.029597561806440353 -0.09574669599533081 7.767819404602051 5.397667407989502 0.40357664227485657 0.04507899656891823 0.15027347207069397 -0.06730522215366364 2.917407751083374 0.9232812523841858 -0.18638597428798676 -0.14090296626091003 -0.03459905833005905 -0.15779221057891846 10.416557312011719 0.6800306439399719 0.15857011079788208 0.009906748309731483 -0.0396578274667263 -0.17787513136863708 2.1278464794158936 -0.7727638483047485 -0.3971549868583679 -0.08209370076656342 -0.06090053170919418 -0.035501837730407715 -112.42689514160156 50.29166030883789 50.692222595214844 28.167619705200195 -40.187496185302734 -83.67729949951172 0.9399245977401733 -27.87598991394043 3.9549410343170166 -0.08454086631536484 -0.020667051896452904 -0.04805637523531914 -0.23441855609416962 -0.05768980085849762 -0.011515617370605469 -0.03082500956952572 -0.0956810712814331 0.00949917547404766 -7.560304164886475 5.666958332061768 -0.5804908275604248 0.10245651751756668 -0.20746751129627228 -0.08237124234437943 -3.035116672515869 1.1901038885116577 -0.19340093433856964 0.17907525599002838 0.1691722571849823 -0.01667981967329979 -10.341825485229492 0.8197223544120789 0.0029912875033915043 -0.05904650315642357 -0.07592666149139404 -0.0467354841530323 -2.2845828533172607 -0.4650973379611969 0.02061811462044716 -0.13176342844963074 0.16308601200580597 -0.13669002056121826 -62.47547149658203 -55.16390609741211 -53.473228454589844 -2.1906559467315674 68.9807357788086 2.4897310733795166 2.095993757247925 -0.9498282670974731 15.731413841247559 0.033944014459848404 0.028492139652371407 -0.1764346957206726 12.028621673583984 8.579512596130371 3.501941442489624 -0.09639300405979156 36.377647399902344 -2.6187188625335693 8.318307876586914 -17.14568328857422 31.90426254272461
-3.5384479081385116 31.55452798425886 41.798556585296296 10.0613431930542 27.852079391479492 7.619756698608398 -19.420406341552734 10.723494529724121 5.62631368637085 5.268503189086914 -9.551704406738281 1.4786196947097778 -8.961812019348145 18.231576919555664 -12.919384002685547 12.230149269104004 -25.949710845947266 -22.768789291381836 -0.07278723269701004 0.016955291852355003 0.08407498151063919 0.14646221697330475 -0.058353491127491 -0.09019569307565689 -0.005403025541454554 0.020504998043179512 0.012560040690004826 36.13237762451172 12.386032104492188 32.749813079833984 -15.254616737365723 -7.829377174377441 27.936243057250977 -0.516255259513855 18.492542266845703 2.8119990825653076 -0.07386768609285355 -0.10024917870759964 0.10513012856245041 -0.010236443020403385 0.020678937435150146 -0.0069837081246078014 -0.09608498215675354 0.028181692585349083 -0.09252702444791794 7.765194892883301 5.395571231842041 0.41276371479034424 0.0471261590719223 0.15740038454532623 -0.06255902349948883 2.921279191970825 0.9144025444984436 -0.18355172872543335 -0.1475776582956314 -0.033658526837825775 -0.1555243283510208 10.416777610778809 0.6782616376876831 0.16689300537109375 0.012471516616642475 -0.033411961048841476 -0.17517520487308502 2.133363962173462 -0.7824053168296814 -0.40225309133529663 -0.08157941699028015 -0.050706300884485245 -0.037235286086797714 -112.37934875488281 50.33580780029297 50.5910758972168 28.164289474487305 -40.18474197387695 -83.65120697021484 0.9289692640304565 -27.73329734802246 3.916748285293579 -0.06946373730897903 -0.024812689051032066 -0.048991672694683075 -0.23458731174468994 -0.05512118712067604 -0.00316829327493906 -0.026230687275528908 -0.08824099600315094 0.01559223048388958 -7.5555572509765625 5.669483661651611 -0.5773739218711853 0.08873626589775085 -0.20843327045440674 -0.08324632793664932 -3.0458314418792725 1.1855628490447998 -0.1917334645986557 0.1838306337594986 0.16267699003219604 -0.016484903171658516 -10.335607528686523 0.8199937343597412 0.004370616748929024 -0.058164361864328384 -0.06756184995174408 -0.050317905843257904 -2.2775421142578125 -0.4626166522502899 0.018146581947803497 -0.1363096535205841 0.1541592925786972 -0.13951745629310608 -62.75436782836914 -55.29876708984375 -53.790924072265625 -2.2218968868255615 69.24160766601562 2.5228328704833984 2.126708984375 -1.1155059337615967 15.742437362670898 0.042012929916381836 0.032075848430395126 -0.16838766634464264 12.033791542053223 8.755619049072266 3.5500946044921875 -0.10295729339122772 36.281707763671875 -2.6366794109344482 8.340157508850098 -17.122835159301758 31.969900131225586
